<svg width="249" height="255" viewBox="0 0 249 255" fill="none" xmlns="http://www.w3.org/2000/svg">
<path d="M235.26 245.944H16.8093C13.8799 245.944 11.5084 242.234 11.5084 237.651V8.29268C11.5084 3.70988 13.8799 0 16.8093 0H235.26C238.189 0 240.561 3.70988 240.561 8.29268V237.542C240.63 242.234 238.189 245.944 235.26 245.944Z" fill="#00D5E4"/>
<path d="M227.518 237.651H24.5513C21.6219 237.651 19.2504 233.941 19.2504 229.358V16.6945C19.2504 12.1117 21.6219 8.4018 24.5513 8.4018H227.518C230.447 8.4018 232.818 12.1117 232.818 16.6945V229.358C232.888 233.832 230.447 237.651 227.518 237.651Z" fill="#065090"/>
<path d="M80.6286 31.534H52.5899V36.4442H80.6286V31.534Z" fill="#FCFDFD"/>
<path d="M70.4454 42.4454H52.5899V47.3556H70.4454V42.4454Z" fill="#FCFDFD"/>
<path d="M152.399 42.4454H80.489V47.3556H152.399V42.4454Z" fill="#FCFDFD"/>
<path d="M197.038 42.4454H159.374V47.3556H197.038V42.4454Z" fill="#FF6452"/>
<path d="M104.971 53.3569H59.5647V58.267H104.971V53.3569Z" fill="#00D050"/>
<path d="M186.576 53.3569H118.92V58.267H186.576V53.3569Z" fill="#FCFDFD"/>
<path d="M116.479 64.2683H52.5899V69.1784H116.479V64.2683Z" fill="#FF6452"/>
<path d="M167.744 64.2683H122.338V69.1784H167.744V64.2683Z" fill="#00D5E4"/>
<path d="M104.971 75.1797H59.5647V80.0899H104.971V75.1797Z" fill="#FCFDFD"/>
<path d="M118.92 86.0911H52.5899V91.0013H118.92V86.0911Z" fill="#FCFDFD"/>
<path d="M97.9958 97.0026H52.5899V101.913H97.9958V97.0026Z" fill="#FCFDFD"/>
<path d="M142.286 107.914H66.5395V112.824H142.286V107.914Z" fill="#FF6452"/>
<path d="M174.718 107.914H150.237V112.824H174.718V107.914Z" fill="#FCFDFD"/>
<path d="M209.592 107.914H185.111V112.824H209.592V107.914Z" fill="#FCFDFD"/>
<path d="M104.413 118.825H73.5143V123.736H104.413V118.825Z" fill="#FCFDFD"/>
<path d="M114.735 129.737H73.5143V134.647H114.735V129.737Z" fill="#FF6452"/>
<path d="M174.718 129.737H129.313V134.647H174.718V129.737Z" fill="#FCFDFD"/>
<path d="M204.013 129.737H185.111V134.647H204.013V129.737Z" fill="#FF6452"/>
<path d="M80.4891 140.648H52.5899V145.558H80.4891V140.648Z" fill="#FCFDFD"/>
<path d="M97.9958 151.56H52.5899V156.47H97.9958V151.56Z" fill="#FCFDFD"/>
<path d="M155.887 162.471H73.5143V167.381H155.887V162.471Z" fill="#FCFDFD"/>
<path d="M215.172 162.471H164.187V167.381H215.172V162.471Z" fill="#00D5E4"/>
<path d="M101.483 173.383H73.5143V178.293H101.483V173.383Z" fill="#FCFDFD"/>
<path d="M136.357 173.383H108.388V178.293H136.357V173.383Z" fill="#00D050"/>
<path d="M171.231 173.383H143.262V178.293H171.231V173.383Z" fill="#FCFDFD"/>
<path d="M97.9958 184.294H52.5899V189.204H97.9958V184.294Z" fill="#FCFDFD"/>
<path d="M111.945 195.205H66.5395V200.116H111.945V195.205Z" fill="#00D050"/>
<path d="M166 195.205H120.594V200.116H166V195.205Z" fill="#00D050"/>
<path d="M145.076 217.028H119.618V221.938H145.076V217.028Z" fill="#FCFDFD"/>
<path d="M133.916 206.117H66.5395V211.027H133.916V206.117Z" fill="#FCFDFD"/>
<path d="M35.0832 31.534H31.9445V36.4442H35.0832V31.534Z" fill="#5E94C1"/>
<path d="M35.0832 42.4454H31.9445V47.3556H35.0832V42.4454Z" fill="#5E94C1"/>
<path d="M35.0832 53.3569H31.9445V58.267H35.0832V53.3569Z" fill="#5E94C1"/>
<path d="M35.0832 64.2683H31.9445V69.1784H35.0832V64.2683Z" fill="#5E94C1"/>
<path d="M35.0832 75.1797H31.9445V80.0899H35.0832V75.1797Z" fill="#5E94C1"/>
<path d="M35.0832 86.0911H31.9445V91.0013H35.0832V86.0911Z" fill="#5E94C1"/>
<path d="M35.0832 97.0026H31.9445V101.913H35.0832V97.0026Z" fill="#5E94C1"/>
<path d="M35.0832 107.914H31.9445V112.824H35.0832V107.914Z" fill="#5E94C1"/>
<path d="M35.0832 118.825H31.9445V123.736H35.0832V118.825Z" fill="#5E94C1"/>
<path d="M35.0832 129.737H31.9445V134.647H35.0832V129.737Z" fill="#5E94C1"/>
<path d="M35.0832 140.648H31.9445V145.558H35.0832V140.648Z" fill="#5E94C1"/>
<path d="M35.0832 151.56H31.9445V156.47H35.0832V151.56Z" fill="#5E94C1"/>
<path d="M35.0832 162.471H31.9445V167.381H35.0832V162.471Z" fill="#5E94C1"/>
<path d="M35.0832 173.383H31.9445V178.293H35.0832V173.383Z" fill="#5E94C1"/>
<path d="M35.0832 184.294H31.9445V189.204H35.0832V184.294Z" fill="#5E94C1"/>
<path d="M35.0832 195.205H31.9445V200.116H35.0832V195.205Z" fill="#5E94C1"/>
<path d="M35.0832 206.117H31.9445V211.027H35.0832V206.117Z" fill="#5E94C1"/>
<path d="M35.0832 217.028H31.9445V221.938H35.0832V217.028Z" fill="#5E94C1"/>
<path d="M100.228 217.028H66.5395V221.938H100.228V217.028Z" fill="#FCFDFD"/>
<path d="M198.572 221.829L185.32 212.991V209.39L198.572 200.552V204.371L188.04 211.136L198.572 217.901V221.829Z" fill="#FCFDFD"/>
<path d="M207.918 195.315L202.129 226.63H200.176L205.966 195.315H207.918Z" fill="#FCFDFD"/>
<path d="M222.705 212.991L209.453 221.829V218.01L219.985 211.245L209.453 204.48V200.661L222.705 209.499V212.991Z" fill="#FCFDFD"/>
<path d="M235.05 255H13.9496C6.27731 255 0 245.18 0 233.177H249C249 245.289 242.723 255 235.05 255Z" fill="#00BBD3"/>
<g opacity="0.1">
<g opacity="0.1">
<path opacity="0.1" d="M90.2538 237.651L142.286 8.29268H122.547L70.5151 237.651H90.2538Z" fill="white"/>
</g>
<g opacity="0.1">
<path opacity="0.1" d="M24.621 237.651H33.8975L85.9294 8.29268H24.621C21.6916 8.29268 19.3202 12.0026 19.3202 16.5854V229.249C19.2504 233.832 21.6916 237.651 24.621 237.651Z" fill="white"/>
</g>
<g opacity="0.1">
<path opacity="0.1" d="M200.595 237.651H227.587C230.517 237.651 232.888 233.941 232.888 229.358V95.3658L200.595 237.651Z" fill="white"/>
</g>
</g>
<g opacity="0.1">
<g opacity="0.1">
<path opacity="0.1" d="M128.545 237.651H164.745L216.776 8.29268H180.577L128.545 237.651Z" fill="white"/>
</g>
</g>
<path d="M247.117 244.089C248.303 240.924 249 237.105 249 233.177H0C0 237.105 0.697479 240.924 1.88319 244.089H247.117Z" fill="#15D7E2"/>
</svg>
